<svg width="184" height="43" viewBox="0 0 184 43" fill="none" xmlns="http://www.w3.org/2000/svg">
<line x1="29" y1="4.9979" x2="29.0105" y2="9.9979" stroke="#BD8617" stroke-width="2"/>
<rect width="184" height="43" fill="#FDF8F2"/>
<path d="M37.616 30.144L37.808 28.584C38.528 28.52 39.056 28.424 39.392 28.296C39.728 28.168 39.944 27.936 40.04 27.6C40.152 27.248 40.208 26.728 40.208 26.04V16.416C39.552 16.448 39.032 16.496 38.648 16.56C38.264 16.624 37.968 16.76 37.76 16.968C37.568 17.176 37.424 17.488 37.328 17.904C37.232 18.304 37.152 18.856 37.088 19.56L35.12 19.704C35.168 19.16 35.208 18.584 35.24 17.976C35.288 17.352 35.32 16.744 35.336 16.152C35.368 15.56 35.392 15.04 35.408 14.592L35.672 14.328L38.048 14.592H45.536L47.96 14.328L48.224 14.592C48.24 15.12 48.256 15.696 48.272 16.32C48.288 16.928 48.312 17.512 48.344 18.072C48.392 18.632 48.432 19.128 48.464 19.56L46.496 19.704C46.416 18.952 46.328 18.36 46.232 17.928C46.136 17.496 45.992 17.184 45.8 16.992C45.624 16.784 45.352 16.648 44.984 16.584C44.632 16.504 44.152 16.448 43.544 16.416C43.496 16.976 43.456 17.672 43.424 18.504C43.392 19.32 43.368 20.208 43.352 21.168C43.336 22.112 43.312 23.072 43.28 24.048C43.264 25.024 43.256 25.936 43.256 26.784C43.256 27.392 43.36 27.824 43.568 28.08C43.776 28.32 44.112 28.44 44.576 28.44C44.976 28.44 45.4 28.416 45.848 28.368L45.944 28.488L45.728 30.096C45.312 30.08 44.84 30.064 44.312 30.048C43.784 30.032 43.272 30.016 42.776 30C42.28 30 41.888 30 41.6 30C41.328 30 40.96 30 40.496 30C40.048 30.016 39.568 30.032 39.056 30.048C38.56 30.08 38.08 30.112 37.616 30.144ZM56.918 30.288C56.214 30.288 55.654 30.128 55.238 29.808C54.838 29.488 54.598 29.032 54.518 28.44L54.326 28.368C54.022 28.688 53.702 28.992 53.366 29.28C53.03 29.552 52.718 29.776 52.43 29.952C52.142 30.112 51.894 30.192 51.686 30.192C51.062 30.192 50.502 30.04 50.006 29.736C49.51 29.432 49.118 29.016 48.83 28.488C48.542 27.96 48.398 27.368 48.398 26.712C48.398 26.216 48.526 25.792 48.782 25.44C49.054 25.072 49.39 24.832 49.79 24.72L54.422 23.64L54.446 23.064C54.446 22.376 54.262 21.84 53.894 21.456C53.542 21.072 53.038 20.88 52.382 20.88C51.934 20.88 51.454 20.992 50.942 21.216C50.43 21.424 49.974 21.688 49.574 22.008L49.358 21.912L48.95 20.472C49.414 20.2 49.934 19.928 50.51 19.656C51.086 19.368 51.63 19.128 52.142 18.936C52.67 18.744 53.07 18.648 53.342 18.648C54.27 18.648 55.03 18.792 55.622 19.08C56.214 19.368 56.646 19.76 56.918 20.256C57.19 20.736 57.326 21.288 57.326 21.912C57.326 22.12 57.302 22.44 57.254 22.872C57.206 23.304 57.15 23.776 57.086 24.288C57.022 24.8 56.966 25.288 56.918 25.752C56.87 26.216 56.846 26.584 56.846 26.856C56.846 27.16 56.918 27.4 57.062 27.576C57.222 27.752 57.438 27.84 57.71 27.84C57.918 27.84 58.126 27.792 58.334 27.696C58.558 27.6 58.734 27.512 58.862 27.432L59.222 27.936C59.062 28.208 58.854 28.52 58.598 28.872C58.342 29.208 58.07 29.512 57.782 29.784C57.494 30.04 57.206 30.208 56.918 30.288ZM52.574 27.912C52.814 27.912 53.094 27.848 53.414 27.72C53.75 27.576 54.046 27.408 54.302 27.216L54.374 24.936L51.806 25.656C51.422 25.768 51.23 26.032 51.23 26.448C51.23 26.864 51.35 27.216 51.59 27.504C51.846 27.776 52.174 27.912 52.574 27.912ZM63.4316 30.288C62.7916 30.288 62.2316 30.232 61.7516 30.12C61.2716 30.008 60.8956 29.904 60.6236 29.808C60.3676 29.696 60.2396 29.64 60.2396 29.64L60.0956 29.4C60.1276 29.176 60.1596 28.872 60.1916 28.488C60.2396 28.104 60.2796 27.712 60.3116 27.312C60.3596 26.896 60.3916 26.536 60.4076 26.232L61.7276 26.112C61.7436 26.928 61.9276 27.536 62.2796 27.936C62.6316 28.336 63.1596 28.536 63.8636 28.536C64.3276 28.536 64.7116 28.44 65.0156 28.248C65.3196 28.04 65.4716 27.784 65.4716 27.48C65.4716 27.256 65.3996 27.056 65.2556 26.88C65.1276 26.704 64.8876 26.512 64.5356 26.304C64.1996 26.08 63.7116 25.816 63.0716 25.512C62.1116 25.064 61.4156 24.592 60.9836 24.096C60.5516 23.584 60.3356 22.992 60.3356 22.32C60.3356 21.584 60.5436 20.944 60.9596 20.4C61.3756 19.856 61.9596 19.432 62.7116 19.128C63.4636 18.808 64.3196 18.648 65.2796 18.648C66.0636 18.648 66.7036 18.72 67.1996 18.864C67.7116 19.008 67.9676 19.08 67.9676 19.08L68.0876 19.32C68.0876 19.32 68.0556 19.472 67.9916 19.776C67.9436 20.064 67.8796 20.448 67.7996 20.928C67.7356 21.392 67.6796 21.888 67.6316 22.416L66.2876 22.512C66.2876 22.512 66.2876 22.456 66.2876 22.344C66.3036 22.232 66.3116 22.144 66.3116 22.08C66.3116 21.52 66.1756 21.112 65.9036 20.856C65.6316 20.584 65.2076 20.448 64.6316 20.448C64.1996 20.448 63.8396 20.552 63.5516 20.76C63.2796 20.952 63.1436 21.2 63.1436 21.504C63.1436 21.808 63.2716 22.088 63.5276 22.344C63.7996 22.6 64.2236 22.872 64.7996 23.16C65.7276 23.592 66.4476 23.992 66.9596 24.36C67.4716 24.712 67.8236 25.072 68.0156 25.44C68.2236 25.808 68.3276 26.232 68.3276 26.712C68.3276 27.368 68.1116 27.976 67.6796 28.536C67.2476 29.08 66.6556 29.512 65.9036 29.832C65.1676 30.136 64.3436 30.288 63.4316 30.288ZM74.0924 30.288C72.9564 30.288 72.1244 30.048 71.5964 29.568C71.0684 29.088 70.8044 28.344 70.8044 27.336V21.984C70.8044 21.488 70.7164 21.152 70.5404 20.976C70.3644 20.8 70.0204 20.704 69.5084 20.688L69.2684 20.52L69.4364 19.344C69.9484 19.104 70.4444 18.84 70.9244 18.552C71.4044 18.248 71.8284 17.968 72.1964 17.712C72.5804 17.44 72.8844 17.224 73.1084 17.064C73.3324 16.888 73.4444 16.8 73.4444 16.8L74.1164 17.136C74.1164 17.136 74.0844 17.32 74.0204 17.688C73.9724 18.04 73.9164 18.544 73.8524 19.2L76.6844 19.128L76.7804 19.248L76.5404 20.856L73.7084 20.784C73.6604 21.472 73.6204 22.256 73.5884 23.136C73.5724 24 73.5644 24.96 73.5644 26.016C73.5644 26.704 73.6844 27.2 73.9244 27.504C74.1644 27.808 74.5564 27.96 75.1004 27.96C75.4524 27.96 75.7804 27.904 76.0844 27.792C76.3884 27.68 76.5404 27.624 76.5404 27.624L76.8524 28.392C76.8524 28.392 76.7404 28.488 76.5164 28.68C76.3084 28.872 76.0444 29.096 75.7244 29.352C75.4204 29.592 75.1164 29.808 74.8124 30C74.5084 30.192 74.2684 30.288 74.0924 30.288ZM83.1652 30.288C82.0452 30.288 81.0772 30.064 80.2612 29.616C79.4612 29.168 78.8372 28.528 78.3892 27.696C77.9572 26.864 77.7412 25.888 77.7412 24.768C77.7412 23.888 77.8852 23.08 78.1732 22.344C78.4612 21.608 78.8612 20.968 79.3732 20.424C79.8852 19.864 80.4852 19.432 81.1732 19.128C81.8612 18.808 82.6052 18.648 83.4052 18.648C86.0932 18.648 87.4372 20.008 87.4372 22.728C87.4372 22.968 87.4132 23.216 87.3652 23.472C87.3332 23.728 87.3012 23.928 87.2692 24.072L86.9812 24.36H80.7652C80.7972 25.464 81.0532 26.328 81.5332 26.952C82.0292 27.56 82.7172 27.896 83.5972 27.96C84.4772 28.024 85.5092 27.784 86.6932 27.24L86.8612 27.336L87.2452 28.512C86.9252 28.752 86.5252 29.016 86.0452 29.304C85.5652 29.576 85.0692 29.808 84.5572 30C84.0452 30.192 83.5812 30.288 83.1652 30.288ZM80.7652 23.04L84.0532 22.848C84.2452 22.832 84.3652 22.792 84.4132 22.728C84.4772 22.648 84.5092 22.504 84.5092 22.296C84.5092 21.72 84.3812 21.28 84.1252 20.976C83.8692 20.672 83.4932 20.52 82.9972 20.52C82.3732 20.52 81.8612 20.736 81.4612 21.168C81.0772 21.584 80.8452 22.208 80.7652 23.04ZM93.359 30.192L93.551 28.608C94.207 28.496 94.647 28.304 94.871 28.032C95.095 27.76 95.207 27.28 95.207 26.592V17.424C95.207 16.912 95.151 16.568 95.039 16.392C94.943 16.216 94.743 16.128 94.439 16.128C94.279 16.128 94.103 16.136 93.911 16.152C93.719 16.168 93.623 16.176 93.623 16.176L93.479 15.984L93.671 14.568C93.847 14.568 94.103 14.576 94.439 14.592C94.791 14.592 95.167 14.592 95.567 14.592C95.983 14.592 96.359 14.592 96.695 14.592C96.903 14.592 97.199 14.592 97.583 14.592C97.983 14.576 98.391 14.56 98.807 14.544C99.223 14.528 99.575 14.52 99.863 14.52C100.151 14.504 100.295 14.496 100.295 14.496C101.399 14.496 102.319 14.624 103.055 14.88C103.791 15.12 104.375 15.464 104.807 15.912C105.255 16.344 105.575 16.832 105.767 17.376C105.959 17.92 106.055 18.488 106.055 19.08C106.055 19.8 105.895 20.488 105.575 21.144C105.271 21.8 104.847 22.384 104.303 22.896C103.775 23.392 103.167 23.792 102.479 24.096C101.807 24.384 101.087 24.528 100.319 24.528H98.303L98.255 26.352C98.255 26.944 98.279 27.392 98.327 27.696C98.391 28 98.503 28.208 98.663 28.32C98.839 28.416 99.079 28.464 99.383 28.464C99.591 28.464 99.823 28.456 100.079 28.44C100.335 28.424 100.463 28.416 100.463 28.416L100.535 28.536L100.319 30.072C100.319 30.072 100.207 30.064 99.983 30.048C99.759 30.048 99.479 30.04 99.143 30.024C98.823 30.024 98.495 30.016 98.159 30C97.839 30 97.567 30 97.343 30C97.039 30 96.663 30.008 96.215 30.024C95.767 30.04 95.327 30.056 94.895 30.072C94.463 30.104 94.095 30.128 93.791 30.144C93.503 30.176 93.359 30.192 93.359 30.192ZM100.487 22.728C101.975 22.408 102.719 21.312 102.719 19.44C102.719 18.416 102.431 17.672 101.855 17.208C101.279 16.728 100.367 16.488 99.119 16.488C98.895 16.488 98.751 16.512 98.687 16.56C98.639 16.592 98.607 16.704 98.591 16.896C98.543 17.76 98.495 18.672 98.447 19.632C98.415 20.576 98.383 21.504 98.351 22.416L100.487 22.728ZM114.902 30.288C114.198 30.288 113.638 30.128 113.222 29.808C112.822 29.488 112.582 29.032 112.502 28.44L112.31 28.368C112.006 28.688 111.686 28.992 111.35 29.28C111.014 29.552 110.702 29.776 110.414 29.952C110.126 30.112 109.878 30.192 109.67 30.192C109.046 30.192 108.486 30.04 107.99 29.736C107.494 29.432 107.102 29.016 106.814 28.488C106.526 27.96 106.382 27.368 106.382 26.712C106.382 26.216 106.51 25.792 106.766 25.44C107.038 25.072 107.374 24.832 107.774 24.72L112.406 23.64L112.43 23.064C112.43 22.376 112.246 21.84 111.878 21.456C111.526 21.072 111.022 20.88 110.366 20.88C109.918 20.88 109.438 20.992 108.926 21.216C108.414 21.424 107.958 21.688 107.558 22.008L107.342 21.912L106.934 20.472C107.398 20.2 107.918 19.928 108.494 19.656C109.07 19.368 109.614 19.128 110.126 18.936C110.654 18.744 111.054 18.648 111.326 18.648C112.254 18.648 113.014 18.792 113.606 19.08C114.198 19.368 114.63 19.76 114.902 20.256C115.174 20.736 115.31 21.288 115.31 21.912C115.31 22.12 115.286 22.44 115.238 22.872C115.19 23.304 115.134 23.776 115.07 24.288C115.006 24.8 114.95 25.288 114.902 25.752C114.854 26.216 114.83 26.584 114.83 26.856C114.83 27.16 114.902 27.4 115.046 27.576C115.206 27.752 115.422 27.84 115.694 27.84C115.902 27.84 116.11 27.792 116.318 27.696C116.542 27.6 116.718 27.512 116.846 27.432L117.206 27.936C117.046 28.208 116.838 28.52 116.582 28.872C116.326 29.208 116.054 29.512 115.766 29.784C115.478 30.04 115.19 30.208 114.902 30.288ZM110.558 27.912C110.798 27.912 111.078 27.848 111.398 27.72C111.734 27.576 112.03 27.408 112.286 27.216L112.358 24.936L109.79 25.656C109.406 25.768 109.214 26.032 109.214 26.448C109.214 26.864 109.334 27.216 109.574 27.504C109.83 27.776 110.158 27.912 110.558 27.912ZM118.392 28.632C118.872 28.6 119.192 28.472 119.352 28.248C119.528 28.024 119.616 27.6 119.616 26.976V22.2C119.616 21.656 119.544 21.288 119.4 21.096C119.256 20.888 118.984 20.784 118.584 20.784C118.488 20.784 118.384 20.792 118.272 20.808C118.176 20.808 118.128 20.808 118.128 20.808L118.008 20.64L118.152 19.44C118.84 19.328 119.512 19.208 120.168 19.08C120.824 18.952 121.368 18.848 121.8 18.768C122.248 18.672 122.472 18.624 122.472 18.624L122.688 18.84C122.688 18.84 122.664 18.96 122.616 19.2C122.584 19.424 122.552 19.712 122.52 20.064C122.488 20.4 122.464 20.744 122.448 21.096L122.592 21.192C123.104 20.44 123.656 19.856 124.248 19.44C124.84 19.024 125.408 18.816 125.952 18.816C126.208 18.816 126.408 18.832 126.552 18.864C126.712 18.88 126.792 18.888 126.792 18.888L126.888 19.08C126.888 19.08 126.864 19.216 126.816 19.488C126.784 19.744 126.736 20.088 126.672 20.52C126.624 20.952 126.568 21.424 126.504 21.936C126.456 22.448 126.424 22.944 126.408 23.424L124.872 23.52C124.872 22.752 124.824 22.248 124.728 22.008C124.648 21.752 124.472 21.624 124.2 21.624C123.944 21.624 123.672 21.72 123.384 21.912C123.096 22.104 122.824 22.368 122.568 22.704C122.568 22.704 122.56 22.848 122.544 23.136C122.528 23.408 122.504 23.76 122.472 24.192C122.456 24.624 122.44 25.064 122.424 25.512C122.408 25.96 122.392 26.352 122.376 26.688C122.36 27.024 122.352 27.24 122.352 27.336C122.352 27.752 122.416 28.04 122.544 28.2C122.688 28.36 122.936 28.44 123.288 28.44C123.512 28.44 123.768 28.432 124.056 28.416C124.344 28.384 124.488 28.368 124.488 28.368L124.56 28.512L124.296 30.096C124.296 30.096 124.192 30.088 123.984 30.072C123.776 30.056 123.504 30.04 123.168 30.024C122.848 30.024 122.512 30.016 122.16 30C121.808 30 121.488 30 121.2 30C120.72 30 120.248 30.008 119.784 30.024C119.32 30.04 118.936 30.056 118.632 30.072C118.344 30.088 118.2 30.096 118.2 30.096L118.392 28.632ZM132.147 30.288C131.011 30.288 130.179 30.048 129.651 29.568C129.123 29.088 128.859 28.344 128.859 27.336V21.984C128.859 21.488 128.771 21.152 128.595 20.976C128.419 20.8 128.075 20.704 127.563 20.688L127.323 20.52L127.491 19.344C128.003 19.104 128.499 18.84 128.979 18.552C129.459 18.248 129.883 17.968 130.251 17.712C130.635 17.44 130.939 17.224 131.163 17.064C131.387 16.888 131.499 16.8 131.499 16.8L132.171 17.136C132.171 17.136 132.139 17.32 132.075 17.688C132.027 18.04 131.971 18.544 131.907 19.2L134.739 19.128L134.835 19.248L134.595 20.856L131.763 20.784C131.715 21.472 131.675 22.256 131.643 23.136C131.627 24 131.619 24.96 131.619 26.016C131.619 26.704 131.739 27.2 131.979 27.504C132.219 27.808 132.611 27.96 133.155 27.96C133.507 27.96 133.835 27.904 134.139 27.792C134.443 27.68 134.595 27.624 134.595 27.624L134.907 28.392C134.907 28.392 134.795 28.488 134.571 28.68C134.363 28.872 134.099 29.096 133.779 29.352C133.475 29.592 133.171 29.808 132.867 30C132.563 30.192 132.323 30.288 132.147 30.288ZM142.828 28.704C143.228 28.624 143.508 28.48 143.668 28.272C143.844 28.048 143.94 27.744 143.956 27.36L144.028 23.208C144.028 22.504 143.9 21.984 143.644 21.648C143.388 21.296 142.996 21.12 142.468 21.12C142.212 21.12 141.94 21.176 141.652 21.288C141.38 21.384 141.132 21.504 140.908 21.648C140.684 21.792 140.5 21.92 140.356 22.032C140.34 22.464 140.316 22.952 140.284 23.496C140.252 24.04 140.22 24.584 140.188 25.128C140.172 25.656 140.156 26.128 140.14 26.544C140.124 26.96 140.116 27.256 140.116 27.432C140.116 27.848 140.172 28.136 140.284 28.296C140.396 28.44 140.58 28.512 140.836 28.512C140.948 28.512 141.084 28.512 141.244 28.512C141.404 28.496 141.484 28.488 141.484 28.488L141.532 28.584L141.292 30.072C141.292 30.072 141.148 30.064 140.86 30.048C140.572 30.032 140.228 30.016 139.828 30C139.444 30 139.092 30 138.772 30C138.356 30 137.924 30.008 137.476 30.024C137.044 30.056 136.676 30.08 136.372 30.096C136.084 30.128 135.94 30.144 135.94 30.144L136.132 28.656C136.596 28.592 136.916 28.464 137.092 28.272C137.284 28.08 137.38 27.76 137.38 27.312V22.224C137.38 21.68 137.292 21.304 137.116 21.096C136.956 20.888 136.652 20.784 136.204 20.784H135.892L135.796 20.664L135.916 19.416C136.652 19.304 137.356 19.192 138.028 19.08C138.7 18.952 139.252 18.848 139.684 18.768C140.116 18.672 140.332 18.624 140.332 18.624L140.524 18.864C140.524 18.864 140.484 19.04 140.404 19.392C140.34 19.728 140.292 20.104 140.26 20.52L140.356 20.616C140.548 20.456 140.78 20.264 141.052 20.04C141.34 19.816 141.636 19.6 141.94 19.392C142.26 19.184 142.556 19.008 142.828 18.864C143.1 18.72 143.316 18.648 143.476 18.648C144.612 18.648 145.492 18.92 146.116 19.464C146.756 20.008 147.076 20.768 147.076 21.744C147.076 21.984 147.052 22.352 147.004 22.848C146.956 23.344 146.9 23.888 146.836 24.48C146.788 25.072 146.74 25.632 146.692 26.16C146.66 26.688 146.644 27.104 146.644 27.408C146.644 27.808 146.7 28.104 146.812 28.296C146.924 28.472 147.116 28.56 147.388 28.56C147.532 28.56 147.692 28.552 147.868 28.536C148.044 28.52 148.132 28.512 148.132 28.512L148.18 28.608L147.964 30.072C147.964 30.072 147.868 30.064 147.676 30.048C147.5 30.048 147.276 30.04 147.004 30.024C146.732 30.024 146.452 30.016 146.164 30C145.876 30 145.612 30 145.372 30C145.132 30 144.86 30.008 144.556 30.024C144.268 30.056 143.98 30.08 143.692 30.096C143.404 30.112 143.164 30.128 142.972 30.144C142.796 30.176 142.708 30.192 142.708 30.192L142.828 28.704ZM154.696 30.288C153.576 30.288 152.608 30.064 151.792 29.616C150.992 29.168 150.368 28.528 149.92 27.696C149.488 26.864 149.272 25.888 149.272 24.768C149.272 23.888 149.416 23.08 149.704 22.344C149.992 21.608 150.392 20.968 150.904 20.424C151.416 19.864 152.016 19.432 152.704 19.128C153.392 18.808 154.136 18.648 154.936 18.648C157.624 18.648 158.968 20.008 158.968 22.728C158.968 22.968 158.944 23.216 158.896 23.472C158.864 23.728 158.832 23.928 158.8 24.072L158.512 24.36H152.296C152.328 25.464 152.584 26.328 153.064 26.952C153.56 27.56 154.248 27.896 155.128 27.96C156.008 28.024 157.04 27.784 158.224 27.24L158.392 27.336L158.776 28.512C158.456 28.752 158.056 29.016 157.576 29.304C157.096 29.576 156.6 29.808 156.088 30C155.576 30.192 155.112 30.288 154.696 30.288ZM152.296 23.04L155.584 22.848C155.776 22.832 155.896 22.792 155.944 22.728C156.008 22.648 156.04 22.504 156.04 22.296C156.04 21.72 155.912 21.28 155.656 20.976C155.4 20.672 155.024 20.52 154.528 20.52C153.904 20.52 153.392 20.736 152.992 21.168C152.608 21.584 152.376 22.208 152.296 23.04ZM160.79 28.632C161.27 28.6 161.59 28.472 161.75 28.248C161.926 28.024 162.014 27.6 162.014 26.976V22.2C162.014 21.656 161.942 21.288 161.798 21.096C161.654 20.888 161.382 20.784 160.982 20.784C160.886 20.784 160.782 20.792 160.67 20.808C160.574 20.808 160.526 20.808 160.526 20.808L160.406 20.64L160.55 19.44C161.238 19.328 161.91 19.208 162.566 19.08C163.222 18.952 163.766 18.848 164.198 18.768C164.646 18.672 164.87 18.624 164.87 18.624L165.086 18.84C165.086 18.84 165.062 18.96 165.014 19.2C164.982 19.424 164.95 19.712 164.918 20.064C164.886 20.4 164.862 20.744 164.846 21.096L164.99 21.192C165.502 20.44 166.054 19.856 166.646 19.44C167.238 19.024 167.806 18.816 168.35 18.816C168.606 18.816 168.806 18.832 168.95 18.864C169.11 18.88 169.19 18.888 169.19 18.888L169.286 19.08C169.286 19.08 169.262 19.216 169.214 19.488C169.182 19.744 169.134 20.088 169.07 20.52C169.022 20.952 168.966 21.424 168.902 21.936C168.854 22.448 168.822 22.944 168.806 23.424L167.27 23.52C167.27 22.752 167.222 22.248 167.126 22.008C167.046 21.752 166.87 21.624 166.598 21.624C166.342 21.624 166.07 21.72 165.782 21.912C165.494 22.104 165.222 22.368 164.966 22.704C164.966 22.704 164.958 22.848 164.942 23.136C164.926 23.408 164.902 23.76 164.87 24.192C164.854 24.624 164.838 25.064 164.822 25.512C164.806 25.96 164.79 26.352 164.774 26.688C164.758 27.024 164.75 27.24 164.75 27.336C164.75 27.752 164.814 28.04 164.942 28.2C165.086 28.36 165.334 28.44 165.686 28.44C165.91 28.44 166.166 28.432 166.454 28.416C166.742 28.384 166.886 28.368 166.886 28.368L166.958 28.512L166.694 30.096C166.694 30.096 166.59 30.088 166.382 30.072C166.174 30.056 165.902 30.04 165.566 30.024C165.246 30.024 164.91 30.016 164.558 30C164.206 30 163.886 30 163.598 30C163.118 30 162.646 30.008 162.182 30.024C161.718 30.04 161.334 30.056 161.03 30.072C160.742 30.088 160.598 30.096 160.598 30.096L160.79 28.632ZM173.682 30.288C173.042 30.288 172.482 30.232 172.002 30.12C171.522 30.008 171.146 29.904 170.874 29.808C170.618 29.696 170.49 29.64 170.49 29.64L170.346 29.4C170.378 29.176 170.41 28.872 170.442 28.488C170.49 28.104 170.53 27.712 170.562 27.312C170.61 26.896 170.642 26.536 170.658 26.232L171.978 26.112C171.994 26.928 172.178 27.536 172.53 27.936C172.882 28.336 173.41 28.536 174.114 28.536C174.578 28.536 174.962 28.44 175.266 28.248C175.57 28.04 175.722 27.784 175.722 27.48C175.722 27.256 175.65 27.056 175.506 26.88C175.378 26.704 175.138 26.512 174.786 26.304C174.45 26.08 173.962 25.816 173.322 25.512C172.362 25.064 171.666 24.592 171.234 24.096C170.802 23.584 170.586 22.992 170.586 22.32C170.586 21.584 170.794 20.944 171.21 20.4C171.626 19.856 172.21 19.432 172.962 19.128C173.714 18.808 174.57 18.648 175.53 18.648C176.314 18.648 176.954 18.72 177.45 18.864C177.962 19.008 178.218 19.08 178.218 19.08L178.338 19.32C178.338 19.32 178.306 19.472 178.242 19.776C178.194 20.064 178.13 20.448 178.05 20.928C177.986 21.392 177.93 21.888 177.882 22.416L176.538 22.512C176.538 22.512 176.538 22.456 176.538 22.344C176.554 22.232 176.562 22.144 176.562 22.08C176.562 21.52 176.426 21.112 176.154 20.856C175.882 20.584 175.458 20.448 174.882 20.448C174.45 20.448 174.09 20.552 173.802 20.76C173.53 20.952 173.394 21.2 173.394 21.504C173.394 21.808 173.522 22.088 173.778 22.344C174.05 22.6 174.474 22.872 175.05 23.16C175.978 23.592 176.698 23.992 177.21 24.36C177.722 24.712 178.074 25.072 178.266 25.44C178.474 25.808 178.578 26.232 178.578 26.712C178.578 27.368 178.362 27.976 177.93 28.536C177.498 29.08 176.906 29.512 176.154 29.832C175.418 30.136 174.594 30.288 173.682 30.288Z" fill="black"/>
<rect x="12" y="4" width="17" height="35" fill="#FDF8F2" stroke="#094170" stroke-width="2"/>
<line x1="29" y1="12.9979" x2="29.0105" y2="17.9979" stroke="#BD8617" stroke-width="2"/>
<line x1="29" y1="12.9979" x2="29.0105" y2="17.9979" stroke="#BD8617" stroke-width="2"/>
<line x1="29" y1="12.9979" x2="29.0105" y2="17.9979" stroke="#BD8617" stroke-width="2"/>
<line x1="29" y1="12.9979" x2="29.0105" y2="17.9979" stroke="#BD8617" stroke-width="2"/>
<line x1="29" y1="12.9979" x2="29.0105" y2="17.9979" stroke="#BD8617" stroke-width="2"/>
<line x1="29" y1="12.9979" x2="29.0105" y2="17.9979" stroke="#BD8617" stroke-width="2"/>
<line x1="29" y1="12.9979" x2="29.0105" y2="17.9979" stroke="#BD8617" stroke-width="2"/>
<line x1="29" y1="12.9979" x2="29.0105" y2="17.9979" stroke="#BD8617" stroke-width="2"/>
<rect x="12" y="4" width="17" height="35" fill="#FDF8F2" stroke="#094170" stroke-width="2"/>
<line x1="29" y1="12.9979" x2="29.0105" y2="17.9979" stroke="#BD8617" stroke-width="2"/>
<line x1="29" y1="4.9979" x2="29.0105" y2="9.9979" stroke="#BD8617" stroke-width="2"/>
<line x1="29" y1="28.9979" x2="29.0105" y2="33.9979" stroke="#BD8617" stroke-width="2"/>
<line x1="29" y1="20.9979" x2="29.0105" y2="25.9979" stroke="#BD8617" stroke-width="2"/>
</svg>
