<svg width="144" height="17" viewBox="0 0 144 17" fill="none" xmlns="http://www.w3.org/2000/svg">
<path d="M2.616 16.144L2.808 14.584C3.528 14.52 4.056 14.424 4.392 14.296C4.728 14.168 4.944 13.936 5.04 13.6C5.152 13.248 5.208 12.728 5.208 12.04V2.416C4.552 2.448 4.032 2.496 3.648 2.56C3.264 2.624 2.968 2.76 2.76 2.968C2.568 3.176 2.424 3.488 2.328 3.904C2.232 4.304 2.152 4.856 2.088 5.56L0.12 5.704C0.168 5.16 0.208 4.584 0.24 3.976C0.288 3.352 0.32 2.744 0.336 2.152C0.368 1.56 0.392 1.04 0.408 0.592L0.672 0.327999L3.048 0.592H10.536L12.96 0.327999L13.224 0.592C13.24 1.12 13.256 1.696 13.272 2.32C13.288 2.928 13.312 3.512 13.344 4.072C13.392 4.632 13.432 5.128 13.464 5.56L11.496 5.704C11.416 4.952 11.328 4.36 11.232 3.928C11.136 3.496 10.992 3.184 10.8 2.992C10.624 2.784 10.352 2.648 9.984 2.584C9.632 2.504 9.152 2.448 8.544 2.416C8.496 2.976 8.456 3.672 8.424 4.504C8.392 5.32 8.368 6.208 8.352 7.168C8.336 8.112 8.312 9.072 8.28 10.048C8.264 11.024 8.256 11.936 8.256 12.784C8.256 13.392 8.36 13.824 8.568 14.08C8.776 14.32 9.112 14.44 9.576 14.44C9.976 14.44 10.4 14.416 10.848 14.368L10.944 14.488L10.728 16.096C10.312 16.08 9.84 16.064 9.312 16.048C8.784 16.032 8.272 16.016 7.776 16C7.28 16 6.888 16 6.6 16C6.328 16 5.96 16 5.496 16C5.048 16.016 4.568 16.032 4.056 16.048C3.56 16.08 3.08 16.112 2.616 16.144ZM21.918 16.288C21.214 16.288 20.654 16.128 20.238 15.808C19.838 15.488 19.598 15.032 19.518 14.44L19.326 14.368C19.022 14.688 18.702 14.992 18.366 15.28C18.03 15.552 17.718 15.776 17.43 15.952C17.142 16.112 16.894 16.192 16.686 16.192C16.062 16.192 15.502 16.04 15.006 15.736C14.51 15.432 14.118 15.016 13.83 14.488C13.542 13.96 13.398 13.368 13.398 12.712C13.398 12.216 13.526 11.792 13.782 11.44C14.054 11.072 14.39 10.832 14.79 10.72L19.422 9.64L19.446 9.064C19.446 8.376 19.262 7.84 18.894 7.456C18.542 7.072 18.038 6.88 17.382 6.88C16.934 6.88 16.454 6.992 15.942 7.216C15.43 7.424 14.974 7.688 14.574 8.008L14.358 7.912L13.95 6.472C14.414 6.2 14.934 5.928 15.51 5.656C16.086 5.368 16.63 5.128 17.142 4.936C17.67 4.744 18.07 4.648 18.342 4.648C19.27 4.648 20.03 4.792 20.622 5.08C21.214 5.368 21.646 5.76 21.918 6.256C22.19 6.736 22.326 7.288 22.326 7.912C22.326 8.12 22.302 8.44 22.254 8.872C22.206 9.304 22.15 9.776 22.086 10.288C22.022 10.8 21.966 11.288 21.918 11.752C21.87 12.216 21.846 12.584 21.846 12.856C21.846 13.16 21.918 13.4 22.062 13.576C22.222 13.752 22.438 13.84 22.71 13.84C22.918 13.84 23.126 13.792 23.334 13.696C23.558 13.6 23.734 13.512 23.862 13.432L24.222 13.936C24.062 14.208 23.854 14.52 23.598 14.872C23.342 15.208 23.07 15.512 22.782 15.784C22.494 16.04 22.206 16.208 21.918 16.288ZM17.574 13.912C17.814 13.912 18.094 13.848 18.414 13.72C18.75 13.576 19.046 13.408 19.302 13.216L19.374 10.936L16.806 11.656C16.422 11.768 16.23 12.032 16.23 12.448C16.23 12.864 16.35 13.216 16.59 13.504C16.846 13.776 17.174 13.912 17.574 13.912ZM28.4316 16.288C27.7916 16.288 27.2316 16.232 26.7516 16.12C26.2716 16.008 25.8956 15.904 25.6236 15.808C25.3676 15.696 25.2396 15.64 25.2396 15.64L25.0956 15.4C25.1276 15.176 25.1596 14.872 25.1916 14.488C25.2396 14.104 25.2796 13.712 25.3116 13.312C25.3596 12.896 25.3916 12.536 25.4076 12.232L26.7276 12.112C26.7436 12.928 26.9276 13.536 27.2796 13.936C27.6316 14.336 28.1596 14.536 28.8636 14.536C29.3276 14.536 29.7116 14.44 30.0156 14.248C30.3196 14.04 30.4716 13.784 30.4716 13.48C30.4716 13.256 30.3996 13.056 30.2556 12.88C30.1276 12.704 29.8876 12.512 29.5356 12.304C29.1996 12.08 28.7116 11.816 28.0716 11.512C27.1116 11.064 26.4156 10.592 25.9836 10.096C25.5516 9.584 25.3356 8.992 25.3356 8.32C25.3356 7.584 25.5436 6.944 25.9596 6.4C26.3756 5.856 26.9596 5.432 27.7116 5.128C28.4636 4.808 29.3196 4.648 30.2796 4.648C31.0636 4.648 31.7036 4.72 32.1996 4.864C32.7116 5.008 32.9676 5.08 32.9676 5.08L33.0876 5.32C33.0876 5.32 33.0556 5.472 32.9916 5.776C32.9436 6.064 32.8796 6.448 32.7996 6.928C32.7356 7.392 32.6796 7.888 32.6316 8.416L31.2876 8.512C31.2876 8.512 31.2876 8.456 31.2876 8.344C31.3036 8.232 31.3116 8.144 31.3116 8.08C31.3116 7.52 31.1756 7.112 30.9036 6.856C30.6316 6.584 30.2076 6.448 29.6316 6.448C29.1996 6.448 28.8396 6.552 28.5516 6.76C28.2796 6.952 28.1436 7.2 28.1436 7.504C28.1436 7.808 28.2716 8.088 28.5276 8.344C28.7996 8.6 29.2236 8.872 29.7996 9.16C30.7276 9.592 31.4476 9.992 31.9596 10.36C32.4716 10.712 32.8236 11.072 33.0156 11.44C33.2236 11.808 33.3276 12.232 33.3276 12.712C33.3276 13.368 33.1116 13.976 32.6796 14.536C32.2476 15.08 31.6556 15.512 30.9036 15.832C30.1676 16.136 29.3436 16.288 28.4316 16.288ZM39.0924 16.288C37.9564 16.288 37.1244 16.048 36.5964 15.568C36.0684 15.088 35.8044 14.344 35.8044 13.336V7.984C35.8044 7.488 35.7164 7.152 35.5404 6.976C35.3644 6.8 35.0204 6.704 34.5084 6.688L34.2684 6.52L34.4364 5.344C34.9484 5.104 35.4444 4.84 35.9244 4.552C36.4044 4.248 36.8284 3.968 37.1964 3.712C37.5804 3.44 37.8844 3.224 38.1084 3.064C38.3324 2.888 38.4444 2.8 38.4444 2.8L39.1164 3.136C39.1164 3.136 39.0844 3.32 39.0204 3.688C38.9724 4.04 38.9164 4.544 38.8524 5.2L41.6844 5.128L41.7804 5.248L41.5404 6.856L38.7084 6.784C38.6604 7.472 38.6204 8.256 38.5884 9.136C38.5724 10 38.5644 10.96 38.5644 12.016C38.5644 12.704 38.6844 13.2 38.9244 13.504C39.1644 13.808 39.5564 13.96 40.1004 13.96C40.4524 13.96 40.7804 13.904 41.0844 13.792C41.3884 13.68 41.5404 13.624 41.5404 13.624L41.8524 14.392C41.8524 14.392 41.7404 14.488 41.5164 14.68C41.3084 14.872 41.0444 15.096 40.7244 15.352C40.4204 15.592 40.1164 15.808 39.8124 16C39.5084 16.192 39.2684 16.288 39.0924 16.288ZM48.1652 16.288C47.0452 16.288 46.0772 16.064 45.2612 15.616C44.4612 15.168 43.8372 14.528 43.3892 13.696C42.9572 12.864 42.7412 11.888 42.7412 10.768C42.7412 9.888 42.8852 9.08 43.1732 8.344C43.4612 7.608 43.8612 6.968 44.3732 6.424C44.8852 5.864 45.4852 5.432 46.1732 5.128C46.8612 4.808 47.6052 4.648 48.4052 4.648C51.0932 4.648 52.4372 6.008 52.4372 8.728C52.4372 8.968 52.4132 9.216 52.3652 9.472C52.3332 9.728 52.3012 9.928 52.2692 10.072L51.9812 10.36H45.7652C45.7972 11.464 46.0532 12.328 46.5332 12.952C47.0292 13.56 47.7172 13.896 48.5972 13.96C49.4772 14.024 50.5092 13.784 51.6932 13.24L51.8612 13.336L52.2452 14.512C51.9252 14.752 51.5252 15.016 51.0452 15.304C50.5652 15.576 50.0692 15.808 49.5572 16C49.0452 16.192 48.5812 16.288 48.1652 16.288ZM45.7652 9.04L49.0532 8.848C49.2452 8.832 49.3652 8.792 49.4132 8.728C49.4772 8.648 49.5092 8.504 49.5092 8.296C49.5092 7.72 49.3812 7.28 49.1252 6.976C48.8692 6.672 48.4932 6.52 47.9972 6.52C47.3732 6.52 46.8612 6.736 46.4612 7.168C46.0772 7.584 45.8452 8.208 45.7652 9.04ZM58.359 16.192L58.551 14.608C59.207 14.496 59.647 14.304 59.871 14.032C60.095 13.76 60.207 13.28 60.207 12.592V3.424C60.207 2.912 60.151 2.568 60.039 2.392C59.943 2.216 59.743 2.128 59.439 2.128C59.279 2.128 59.103 2.136 58.911 2.152C58.719 2.168 58.623 2.176 58.623 2.176L58.479 1.984L58.671 0.568C58.847 0.568 59.103 0.576 59.439 0.592C59.791 0.592 60.167 0.592 60.567 0.592C60.983 0.592 61.359 0.592 61.695 0.592C61.903 0.592 62.199 0.592 62.583 0.592C62.983 0.576 63.391 0.559999 63.807 0.543999C64.223 0.527999 64.575 0.519999 64.863 0.519999C65.151 0.503999 65.295 0.495999 65.295 0.495999C66.399 0.495999 67.319 0.623999 68.055 0.879999C68.791 1.12 69.375 1.464 69.807 1.912C70.255 2.344 70.575 2.832 70.767 3.376C70.959 3.92 71.055 4.488 71.055 5.08C71.055 5.8 70.895 6.488 70.575 7.144C70.271 7.8 69.847 8.384 69.303 8.896C68.775 9.392 68.167 9.792 67.479 10.096C66.807 10.384 66.087 10.528 65.319 10.528H63.303L63.255 12.352C63.255 12.944 63.279 13.392 63.327 13.696C63.391 14 63.503 14.208 63.663 14.32C63.839 14.416 64.079 14.464 64.383 14.464C64.591 14.464 64.823 14.456 65.079 14.44C65.335 14.424 65.463 14.416 65.463 14.416L65.535 14.536L65.319 16.072C65.319 16.072 65.207 16.064 64.983 16.048C64.759 16.048 64.479 16.04 64.143 16.024C63.823 16.024 63.495 16.016 63.159 16C62.839 16 62.567 16 62.343 16C62.039 16 61.663 16.008 61.215 16.024C60.767 16.04 60.327 16.056 59.895 16.072C59.463 16.104 59.095 16.128 58.791 16.144C58.503 16.176 58.359 16.192 58.359 16.192ZM65.487 8.728C66.975 8.408 67.719 7.312 67.719 5.44C67.719 4.416 67.431 3.672 66.855 3.208C66.279 2.728 65.367 2.488 64.119 2.488C63.895 2.488 63.751 2.512 63.687 2.56C63.639 2.592 63.607 2.704 63.591 2.896C63.543 3.76 63.495 4.672 63.447 5.632C63.415 6.576 63.383 7.504 63.351 8.416L65.487 8.728ZM79.9024 16.288C79.1984 16.288 78.6384 16.128 78.2224 15.808C77.8224 15.488 77.5824 15.032 77.5024 14.44L77.3104 14.368C77.0064 14.688 76.6864 14.992 76.3504 15.28C76.0144 15.552 75.7024 15.776 75.4144 15.952C75.1264 16.112 74.8784 16.192 74.6704 16.192C74.0464 16.192 73.4864 16.04 72.9904 15.736C72.4944 15.432 72.1024 15.016 71.8144 14.488C71.5264 13.96 71.3824 13.368 71.3824 12.712C71.3824 12.216 71.5104 11.792 71.7664 11.44C72.0384 11.072 72.3744 10.832 72.7744 10.72L77.4064 9.64L77.4304 9.064C77.4304 8.376 77.2464 7.84 76.8784 7.456C76.5264 7.072 76.0224 6.88 75.3664 6.88C74.9184 6.88 74.4384 6.992 73.9264 7.216C73.4144 7.424 72.9584 7.688 72.5584 8.008L72.3424 7.912L71.9344 6.472C72.3984 6.2 72.9184 5.928 73.4944 5.656C74.0704 5.368 74.6144 5.128 75.1264 4.936C75.6544 4.744 76.0544 4.648 76.3264 4.648C77.2544 4.648 78.0144 4.792 78.6064 5.08C79.1984 5.368 79.6304 5.76 79.9024 6.256C80.1744 6.736 80.3104 7.288 80.3104 7.912C80.3104 8.12 80.2864 8.44 80.2384 8.872C80.1904 9.304 80.1344 9.776 80.0704 10.288C80.0064 10.8 79.9504 11.288 79.9024 11.752C79.8544 12.216 79.8304 12.584 79.8304 12.856C79.8304 13.16 79.9024 13.4 80.0464 13.576C80.2064 13.752 80.4224 13.84 80.6944 13.84C80.9024 13.84 81.1104 13.792 81.3184 13.696C81.5424 13.6 81.7184 13.512 81.8464 13.432L82.2064 13.936C82.0464 14.208 81.8384 14.52 81.5824 14.872C81.3264 15.208 81.0544 15.512 80.7664 15.784C80.4784 16.04 80.1904 16.208 79.9024 16.288ZM75.5584 13.912C75.7984 13.912 76.0784 13.848 76.3984 13.72C76.7344 13.576 77.0304 13.408 77.2864 13.216L77.3584 10.936L74.7904 11.656C74.4064 11.768 74.2144 12.032 74.2144 12.448C74.2144 12.864 74.3344 13.216 74.5744 13.504C74.8304 13.776 75.1584 13.912 75.5584 13.912ZM83.3919 14.632C83.8719 14.6 84.1919 14.472 84.3519 14.248C84.5279 14.024 84.6159 13.6 84.6159 12.976V8.2C84.6159 7.656 84.5439 7.288 84.3999 7.096C84.2559 6.888 83.9839 6.784 83.5839 6.784C83.4879 6.784 83.3839 6.792 83.2719 6.808C83.1759 6.808 83.1279 6.808 83.1279 6.808L83.0079 6.64L83.1519 5.44C83.8399 5.328 84.5119 5.208 85.1679 5.08C85.8239 4.952 86.3679 4.848 86.7999 4.768C87.2479 4.672 87.4719 4.624 87.4719 4.624L87.6879 4.84C87.6879 4.84 87.6639 4.96 87.6159 5.2C87.5839 5.424 87.5519 5.712 87.5199 6.064C87.4879 6.4 87.4639 6.744 87.4479 7.096L87.5919 7.192C88.1039 6.44 88.6559 5.856 89.2479 5.44C89.8399 5.024 90.4079 4.816 90.9519 4.816C91.2079 4.816 91.4079 4.832 91.5519 4.864C91.7119 4.88 91.7919 4.888 91.7919 4.888L91.8879 5.08C91.8879 5.08 91.8639 5.216 91.8159 5.488C91.7839 5.744 91.7359 6.088 91.6719 6.52C91.6239 6.952 91.5679 7.424 91.5039 7.936C91.4559 8.448 91.4239 8.944 91.4079 9.424L89.8719 9.52C89.8719 8.752 89.8239 8.248 89.7279 8.008C89.6479 7.752 89.4719 7.624 89.1999 7.624C88.9439 7.624 88.6719 7.72 88.3839 7.912C88.0959 8.104 87.8239 8.368 87.5679 8.704C87.5679 8.704 87.5599 8.848 87.5439 9.136C87.5279 9.408 87.5039 9.76 87.4719 10.192C87.4559 10.624 87.4399 11.064 87.4239 11.512C87.4079 11.96 87.3919 12.352 87.3759 12.688C87.3599 13.024 87.3519 13.24 87.3519 13.336C87.3519 13.752 87.4159 14.04 87.5439 14.2C87.6879 14.36 87.9359 14.44 88.2879 14.44C88.5119 14.44 88.7679 14.432 89.0559 14.416C89.3439 14.384 89.4879 14.368 89.4879 14.368L89.5599 14.512L89.2959 16.096C89.2959 16.096 89.1919 16.088 88.9839 16.072C88.7759 16.056 88.5039 16.04 88.1679 16.024C87.8479 16.024 87.5119 16.016 87.1599 16C86.8079 16 86.4879 16 86.1999 16C85.7199 16 85.2479 16.008 84.7839 16.024C84.3199 16.04 83.9359 16.056 83.6319 16.072C83.3439 16.088 83.1999 16.096 83.1999 16.096L83.3919 14.632ZM97.1471 16.288C96.0111 16.288 95.1791 16.048 94.6511 15.568C94.1231 15.088 93.8591 14.344 93.8591 13.336V7.984C93.8591 7.488 93.7711 7.152 93.5951 6.976C93.4191 6.8 93.0751 6.704 92.5631 6.688L92.3231 6.52L92.4911 5.344C93.0031 5.104 93.4991 4.84 93.9791 4.552C94.4591 4.248 94.8831 3.968 95.2511 3.712C95.6351 3.44 95.9391 3.224 96.1631 3.064C96.3871 2.888 96.4991 2.8 96.4991 2.8L97.1711 3.136C97.1711 3.136 97.1391 3.32 97.0751 3.688C97.0271 4.04 96.9711 4.544 96.9071 5.2L99.7391 5.128L99.8351 5.248L99.5951 6.856L96.7631 6.784C96.7151 7.472 96.6751 8.256 96.6431 9.136C96.6271 10 96.6191 10.96 96.6191 12.016C96.6191 12.704 96.7391 13.2 96.9791 13.504C97.2191 13.808 97.6111 13.96 98.1551 13.96C98.5071 13.96 98.8351 13.904 99.1391 13.792C99.4431 13.68 99.5951 13.624 99.5951 13.624L99.9071 14.392C99.9071 14.392 99.7951 14.488 99.5711 14.68C99.3631 14.872 99.0991 15.096 98.7791 15.352C98.4751 15.592 98.1711 15.808 97.8671 16C97.5631 16.192 97.3231 16.288 97.1471 16.288ZM107.828 14.704C108.228 14.624 108.508 14.48 108.668 14.272C108.844 14.048 108.94 13.744 108.956 13.36L109.028 9.208C109.028 8.504 108.9 7.984 108.644 7.648C108.388 7.296 107.996 7.12 107.468 7.12C107.212 7.12 106.94 7.176 106.652 7.288C106.38 7.384 106.132 7.504 105.908 7.648C105.684 7.792 105.5 7.92 105.356 8.032C105.34 8.464 105.316 8.952 105.284 9.496C105.252 10.04 105.22 10.584 105.188 11.128C105.172 11.656 105.156 12.128 105.14 12.544C105.124 12.96 105.116 13.256 105.116 13.432C105.116 13.848 105.172 14.136 105.284 14.296C105.396 14.44 105.58 14.512 105.836 14.512C105.948 14.512 106.084 14.512 106.244 14.512C106.404 14.496 106.484 14.488 106.484 14.488L106.532 14.584L106.292 16.072C106.292 16.072 106.148 16.064 105.86 16.048C105.572 16.032 105.228 16.016 104.828 16C104.444 16 104.092 16 103.772 16C103.356 16 102.924 16.008 102.476 16.024C102.044 16.056 101.676 16.08 101.372 16.096C101.084 16.128 100.94 16.144 100.94 16.144L101.132 14.656C101.596 14.592 101.916 14.464 102.092 14.272C102.284 14.08 102.38 13.76 102.38 13.312V8.224C102.38 7.68 102.292 7.304 102.116 7.096C101.956 6.888 101.652 6.784 101.204 6.784H100.892L100.796 6.664L100.916 5.416C101.652 5.304 102.356 5.192 103.028 5.08C103.7 4.952 104.252 4.848 104.684 4.768C105.116 4.672 105.332 4.624 105.332 4.624L105.524 4.864C105.524 4.864 105.484 5.04 105.404 5.392C105.34 5.728 105.292 6.104 105.26 6.52L105.356 6.616C105.548 6.456 105.78 6.264 106.052 6.04C106.34 5.816 106.636 5.6 106.94 5.392C107.26 5.184 107.556 5.008 107.828 4.864C108.1 4.72 108.316 4.648 108.476 4.648C109.612 4.648 110.492 4.92 111.116 5.464C111.756 6.008 112.076 6.768 112.076 7.744C112.076 7.984 112.052 8.352 112.004 8.848C111.956 9.344 111.9 9.888 111.836 10.48C111.788 11.072 111.74 11.632 111.692 12.16C111.66 12.688 111.644 13.104 111.644 13.408C111.644 13.808 111.7 14.104 111.812 14.296C111.924 14.472 112.116 14.56 112.388 14.56C112.532 14.56 112.692 14.552 112.868 14.536C113.044 14.52 113.132 14.512 113.132 14.512L113.18 14.608L112.964 16.072C112.964 16.072 112.868 16.064 112.676 16.048C112.5 16.048 112.276 16.04 112.004 16.024C111.732 16.024 111.452 16.016 111.164 16C110.876 16 110.612 16 110.372 16C110.132 16 109.86 16.008 109.556 16.024C109.268 16.056 108.98 16.08 108.692 16.096C108.404 16.112 108.164 16.128 107.972 16.144C107.796 16.176 107.708 16.192 107.708 16.192L107.828 14.704ZM119.696 16.288C118.576 16.288 117.608 16.064 116.792 15.616C115.992 15.168 115.368 14.528 114.92 13.696C114.488 12.864 114.272 11.888 114.272 10.768C114.272 9.888 114.416 9.08 114.704 8.344C114.992 7.608 115.392 6.968 115.904 6.424C116.416 5.864 117.016 5.432 117.704 5.128C118.392 4.808 119.136 4.648 119.936 4.648C122.624 4.648 123.968 6.008 123.968 8.728C123.968 8.968 123.944 9.216 123.896 9.472C123.864 9.728 123.832 9.928 123.8 10.072L123.512 10.36H117.296C117.328 11.464 117.584 12.328 118.064 12.952C118.56 13.56 119.248 13.896 120.128 13.96C121.008 14.024 122.04 13.784 123.224 13.24L123.392 13.336L123.776 14.512C123.456 14.752 123.056 15.016 122.576 15.304C122.096 15.576 121.6 15.808 121.088 16C120.576 16.192 120.112 16.288 119.696 16.288ZM117.296 9.04L120.584 8.848C120.776 8.832 120.896 8.792 120.944 8.728C121.008 8.648 121.04 8.504 121.04 8.296C121.04 7.72 120.912 7.28 120.656 6.976C120.4 6.672 120.024 6.52 119.528 6.52C118.904 6.52 118.392 6.736 117.992 7.168C117.608 7.584 117.376 8.208 117.296 9.04ZM125.79 14.632C126.27 14.6 126.59 14.472 126.75 14.248C126.926 14.024 127.014 13.6 127.014 12.976V8.2C127.014 7.656 126.942 7.288 126.798 7.096C126.654 6.888 126.382 6.784 125.982 6.784C125.886 6.784 125.782 6.792 125.67 6.808C125.574 6.808 125.526 6.808 125.526 6.808L125.406 6.64L125.55 5.44C126.238 5.328 126.91 5.208 127.566 5.08C128.222 4.952 128.766 4.848 129.198 4.768C129.646 4.672 129.87 4.624 129.87 4.624L130.086 4.84C130.086 4.84 130.062 4.96 130.014 5.2C129.982 5.424 129.95 5.712 129.918 6.064C129.886 6.4 129.862 6.744 129.846 7.096L129.99 7.192C130.502 6.44 131.054 5.856 131.646 5.44C132.238 5.024 132.806 4.816 133.35 4.816C133.606 4.816 133.806 4.832 133.95 4.864C134.11 4.88 134.19 4.888 134.19 4.888L134.286 5.08C134.286 5.08 134.262 5.216 134.214 5.488C134.182 5.744 134.134 6.088 134.07 6.52C134.022 6.952 133.966 7.424 133.902 7.936C133.854 8.448 133.822 8.944 133.806 9.424L132.27 9.52C132.27 8.752 132.222 8.248 132.126 8.008C132.046 7.752 131.87 7.624 131.598 7.624C131.342 7.624 131.07 7.72 130.782 7.912C130.494 8.104 130.222 8.368 129.966 8.704C129.966 8.704 129.958 8.848 129.942 9.136C129.926 9.408 129.902 9.76 129.87 10.192C129.854 10.624 129.838 11.064 129.822 11.512C129.806 11.96 129.79 12.352 129.774 12.688C129.758 13.024 129.75 13.24 129.75 13.336C129.75 13.752 129.814 14.04 129.942 14.2C130.086 14.36 130.334 14.44 130.686 14.44C130.91 14.44 131.166 14.432 131.454 14.416C131.742 14.384 131.886 14.368 131.886 14.368L131.958 14.512L131.694 16.096C131.694 16.096 131.59 16.088 131.382 16.072C131.174 16.056 130.902 16.04 130.566 16.024C130.246 16.024 129.91 16.016 129.558 16C129.206 16 128.886 16 128.598 16C128.118 16 127.646 16.008 127.182 16.024C126.718 16.04 126.334 16.056 126.03 16.072C125.742 16.088 125.598 16.096 125.598 16.096L125.79 14.632ZM138.682 16.288C138.042 16.288 137.482 16.232 137.002 16.12C136.522 16.008 136.146 15.904 135.874 15.808C135.618 15.696 135.49 15.64 135.49 15.64L135.346 15.4C135.378 15.176 135.41 14.872 135.442 14.488C135.49 14.104 135.53 13.712 135.562 13.312C135.61 12.896 135.642 12.536 135.658 12.232L136.978 12.112C136.994 12.928 137.178 13.536 137.53 13.936C137.882 14.336 138.41 14.536 139.114 14.536C139.578 14.536 139.962 14.44 140.266 14.248C140.57 14.04 140.722 13.784 140.722 13.48C140.722 13.256 140.65 13.056 140.506 12.88C140.378 12.704 140.138 12.512 139.786 12.304C139.45 12.08 138.962 11.816 138.322 11.512C137.362 11.064 136.666 10.592 136.234 10.096C135.802 9.584 135.586 8.992 135.586 8.32C135.586 7.584 135.794 6.944 136.21 6.4C136.626 5.856 137.21 5.432 137.962 5.128C138.714 4.808 139.57 4.648 140.53 4.648C141.314 4.648 141.954 4.72 142.45 4.864C142.962 5.008 143.218 5.08 143.218 5.08L143.338 5.32C143.338 5.32 143.306 5.472 143.242 5.776C143.194 6.064 143.13 6.448 143.05 6.928C142.986 7.392 142.93 7.888 142.882 8.416L141.538 8.512C141.538 8.512 141.538 8.456 141.538 8.344C141.554 8.232 141.562 8.144 141.562 8.08C141.562 7.52 141.426 7.112 141.154 6.856C140.882 6.584 140.458 6.448 139.882 6.448C139.45 6.448 139.09 6.552 138.802 6.76C138.53 6.952 138.394 7.2 138.394 7.504C138.394 7.808 138.522 8.088 138.778 8.344C139.05 8.6 139.474 8.872 140.05 9.16C140.978 9.592 141.698 9.992 142.21 10.36C142.722 10.712 143.074 11.072 143.266 11.44C143.474 11.808 143.578 12.232 143.578 12.712C143.578 13.368 143.362 13.976 142.93 14.536C142.498 15.08 141.906 15.512 141.154 15.832C140.418 16.136 139.594 16.288 138.682 16.288Z" fill="black"/>
</svg>
